<?xml version="1.0" encoding="UTF-8"?>
<svg width="24px" height="24px" viewBox="0 0 24 24" version="1.1" xmlns="http://www.w3.org/2000/svg" xmlns:xlink="http://www.w3.org/1999/xlink">
    <title>Group</title>
    <g id="Page-1" stroke="none" stroke-width="1" fill="none" fill-rule="evenodd" stroke-linecap="round" stroke-linejoin="round">
        <g id="Home" transform="translate(-101.000000, -782.000000)" stroke="#130F26" stroke-width="1.5">
            <g id="bottom-navigation" transform="translate(0.000000, 771.000000)">
                <g id="Schedules" transform="translate(97.000000, 11.000000)">
                    <g id="Group" transform="translate(4.000000, 0.000000)">
                        <path d="M2.74976,12.7755 C2.74976,5.81947 5.06876,3.50146 12.0238,3.50146 C18.9798,3.50146 21.2988,5.81947 21.2988,12.7755 C21.2988,19.7315 18.9798,22.0495 12.0238,22.0495 C5.06876,22.0495 2.74976,19.7315 2.74976,12.7755 Z" id="Path"></path>
                        <line x1="3.02515" y1="9.32397" x2="21.0331" y2="9.32397" id="Path"></line>
                        <line x1="16.4284" y1="13.261" x2="16.4374" y2="13.261" id="Path"></line>
                        <line x1="12.0289" y1="13.261" x2="12.0379" y2="13.261" id="Path"></line>
                        <line x1="7.62148" y1="13.261" x2="7.63048" y2="13.261" id="Path"></line>
                        <line x1="16.4284" y1="17.113" x2="16.4374" y2="17.113" id="Path"></line>
                        <line x1="12.0289" y1="17.113" x2="12.0379" y2="17.113" id="Path"></line>
                        <line x1="7.62148" y1="17.113" x2="7.63048" y2="17.113" id="Path"></line>
                        <line x1="16.033" y1="2.05005" x2="16.033" y2="5.31205" id="Path"></line>
                        <line x1="8.02466" y1="2.05005" x2="8.02466" y2="5.31205" id="Path"></line>
                    </g>
                </g>
            </g>
        </g>
    </g>
</svg>