<?xml version="1.0" encoding="UTF-8"?>
<svg width="153px" height="36px" viewBox="0 0 153 36" version="1.1" xmlns="http://www.w3.org/2000/svg" xmlns:xlink="http://www.w3.org/1999/xlink">
    <title>Path</title>
    <g id="Page-1" stroke="none" stroke-width="1" fill="none" fill-rule="evenodd" fill-opacity="0.12">
        <g id="Home" transform="translate(-29.000000, -304.000000)" fill="#AAB6BE" fill-rule="nonzero">
            <g id="upcoming-task" transform="translate(19.000000, 232.000000)">
                <path d="M162.42132,106.75414 C163.581408,98.7234915 151.669786,92.1036326 142.741248,91.422902 C138.47378,91.0874695 134.040585,91.7090061 130.000992,90.3672762 C126.002337,89.0437152 123.099348,86.0787565 120.312741,82.9197874 C116.992667,79.1560652 113.837803,75.1169395 109.191905,73.2503533 C102.801061,70.6852813 95.4365711,72.9642491 89.2425276,75.9338133 C83.048484,78.9033774 76.926946,82.6424632 70.0078471,83.0666866 C63.9795305,83.4317161 57.4436752,81.3105988 52.1818455,84.1124467 C48.2561891,86.1941013 46.1949606,90.5053954 42.5800422,93.0408705 C38.9651238,95.5763455 34.4179915,96.0597629 30.0262281,96.2866731 C25.6344648,96.5135833 21.0873325,96.553046 17.0891706,98.2598054 C13.0910087,99.9665649 9.83861792,104.031217 10.6154628,108.125467 L162.42132,106.75414 Z" id="Path" transform="translate(86.500000, 90.131392) scale(-1, 1) translate(-86.500000, -90.131392) "></path>
            </g>
        </g>
    </g>
</svg>