<?xml version="1.0" encoding="UTF-8"?>
<svg width="67px" height="16px" viewBox="0 0 67 16" version="1.1" xmlns="http://www.w3.org/2000/svg" xmlns:xlink="http://www.w3.org/1999/xlink">
    <title>Path</title>
    <g id="Page-1" stroke="none" stroke-width="1" fill="none" fill-rule="evenodd" fill-opacity="0.12">
        <g id="Home" transform="translate(-35.000000, -256.000000)" fill="#AAB6BE" fill-rule="nonzero">
            <g id="upcoming-task" transform="translate(19.000000, 232.000000)">
                <path d="M82.9653186,39.3903207 C83.4766734,35.8199684 78.2261557,32.8768401 74.2905503,32.5741936 C72.4094952,32.4250634 70.4553895,32.7013929 68.6747792,32.1048721 C66.9122145,31.5164291 65.6326072,30.1982358 64.4043005,28.7937873 C62.9408468,27.1204711 61.5502157,25.324713 59.502353,24.494846 C56.6853361,23.3544386 53.4391465,24.3676467 50.7088773,25.6878875 C47.9786081,27.0081284 45.2802986,28.6704914 42.2304326,28.8590973 C39.5732141,29.021386 36.6922779,28.0783568 34.3729187,29.3240326 C32.6425307,30.249517 31.7339629,32.1662786 30.1405449,33.2935274 C28.5471269,34.4207763 26.5427989,34.6356992 24.6069558,34.7365814 C22.6711128,34.8374636 20.6667847,34.8550083 18.904437,35.6138178 C17.1420894,36.3726273 15.7084697,38.1797344 16.0508948,40 L82.9653186,39.3903207 Z" id="Path" transform="translate(49.500000, 32.000000) scale(-1, 1) translate(-49.500000, -32.000000) "></path>
            </g>
        </g>
    </g>
</svg>