<?xml version="1.0" encoding="UTF-8"?>
<svg width="128px" height="128px" viewBox="0 0 128 128" version="1.1" xmlns="http://www.w3.org/2000/svg" xmlns:xlink="http://www.w3.org/1999/xlink">
    <title>Group</title>
    <g id="Page-1" stroke="none" stroke-width="1" fill="none" fill-rule="evenodd">
        <g id="Sign-Up-(General-Error)" transform="translate(-131.000000, -180.000000)" fill="#FFFFFF">
            <g id="Group" transform="translate(131.000000, 180.000000)">
                <path d="M51.2128533,80.7290667 C50.1888533,80.7290667 49.1648533,80.3397333 48.3861867,79.5557333 C46.82352,77.9930667 46.82352,75.4650667 48.3861867,73.9024 L73.9434667,48.3451733 C75.5061333,46.7825067 78.0341333,46.7825067 79.5968,48.3451733 C81.1594667,49.90784 81.1594667,52.43584 79.5968,53.9984 L54.0394667,79.5557333 C53.2608533,80.3397333 52.2368533,80.7290667 51.2128533,80.7290667 Z" id="Path"></path>
                <path d="M76.7813333,80.7445333 C75.7573333,80.7445333 74.7333333,80.3552 73.9546667,79.5712 L48.3757867,53.9872 C46.81312,52.4248 46.81312,49.8968 48.3757867,48.3341333 C49.9437867,46.7714667 52.4717867,46.7714667 54.0293333,48.3341333 L79.608,73.9178667 C81.1706667,75.4805333 81.1706667,78.0085333 79.608,79.5712 C78.8293333,80.3552 77.8,80.7445333 76.7813333,80.7445333 Z" id="Path"></path>
            </g>
        </g>
    </g>
</svg>