<?xml version="1.0" encoding="UTF-8"?>
<svg width="24px" height="24px" viewBox="0 0 24 24" version="1.1" xmlns="http://www.w3.org/2000/svg" xmlns:xlink="http://www.w3.org/1999/xlink">
    <title>Group</title>
    <g id="Page-1" stroke="none" stroke-width="1" fill="none" fill-rule="evenodd" stroke-linecap="round" stroke-linejoin="round">
        <g id="Home" transform="translate(-334.000000, -783.000000)" stroke="#130F26" stroke-width="1.5">
            <g id="bottom-navigation" transform="translate(0.000000, 771.000000)">
                <g id="Settings" transform="translate(322.000000, 12.000000)">
                    <g id="Group" transform="translate(12.000000, 0.000000)">
                        <path d="M12,9.5 C13.3809,9.5 14.5,10.6191 14.5,12 C14.5,13.3809 13.3809,14.5 12,14.5 C10.6191,14.5 9.5,13.3809 9.5,12 C9.5,10.6191 10.6191,9.5 12,9.5 Z" id="Path"></path>
                        <path d="M20.168,7.25025 L20.168,7.25025 C19.4845,6.05799 17.9712,5.65004 16.7885,6.33852 C15.7598,6.93613 14.4741,6.18838 14.4741,4.99218 C14.4741,3.61619 13.3659,2.5 11.9998,2.5 L11.9998,2.5 C10.6337,2.5 9.52546,3.61619 9.52546,4.99218 C9.52546,6.18838 8.23977,6.93613 7.21199,6.33852 C6.02829,5.65004 4.51507,6.05799 3.83153,7.25025 C3.14896,8.4425 3.55399,9.96665 4.73769,10.6541 C5.76546,11.2527 5.76546,12.7473 4.73769,13.3459 C3.55399,14.0343 3.14896,15.5585 3.83153,16.7498 C4.51507,17.942 6.02829,18.35 7.21101,17.6625 L7.21199,17.6625 C8.23977,17.0639 9.52546,17.8116 9.52546,19.0078 L9.52546,19.0078 C9.52546,20.3838 10.6337,21.5 11.9998,21.5 L11.9998,21.5 C13.3659,21.5 14.4741,20.3838 14.4741,19.0078 L14.4741,19.0078 C14.4741,17.8116 15.7598,17.0639 16.7885,17.6625 C17.9712,18.35 19.4845,17.942 20.168,16.7498 C20.8515,15.5585 20.4455,14.0343 19.2628,13.3459 L19.2618,13.3459 C18.2341,12.7473 18.2341,11.2527 19.2628,10.6541 C20.4455,9.96665 20.8515,8.4425 20.168,7.25025 Z" id="Path"></path>
                    </g>
                </g>
            </g>
        </g>
    </g>
</svg>